<svg width="18" height="18" viewBox="0 0 18 18" fill="none" xmlns="http://www.w3.org/2000/svg">
<path d="M7.33366 2.33317C4.57224 2.33317 2.33366 4.57175 2.33366 7.33317C2.33366 10.0946 4.57224 12.3332 7.33366 12.3332C10.0951 12.3332 12.3337 10.0946 12.3337 7.33317C12.3337 4.57175 10.0951 2.33317 7.33366 2.33317ZM0.666992 7.33317C0.666992 3.65127 3.65176 0.666504 7.33366 0.666504C11.0156 0.666504 14.0003 3.65127 14.0003 7.33317C14.0003 8.87376 13.4778 10.2923 12.6002 11.4212L17.0896 15.9106C17.415 16.236 17.415 16.7637 17.0896 17.0891C16.7641 17.4145 16.2365 17.4145 15.9111 17.0891L11.4217 12.5997C10.2928 13.4773 8.87425 13.9998 7.33366 13.9998C3.65176 13.9998 0.666992 11.0151 0.666992 7.33317Z" fill="#FEFEFE"/>
</svg>
