<svg width="20" height="20" viewBox="0 0 20 20" fill="none" xmlns="http://www.w3.org/2000/svg">
<path d="M10 0C7.34844 0 4.80312 1.05422 2.92969 2.92891C1.05433 4.80435 0.000536638 7.34779 0 10C0 12.6511 1.05469 15.1964 2.92969 17.0711C4.80312 18.9458 7.34844 20 10 20C12.6516 20 15.1969 18.9458 17.0703 17.0711C18.9453 15.1964 20 12.6511 20 10C20 7.34891 18.9453 4.80359 17.0703 2.92891C15.1969 1.05422 12.6516 0 10 0Z" fill="white"/>
<path d="M10.0001 0.90918C7.58958 0.90918 5.27566 1.86756 3.57253 3.57182C1.86766 5.27677 0.909668 7.58898 0.90918 10.0001C0.90918 12.4102 1.86799 14.7241 3.57253 16.4284C5.27566 18.1326 7.58958 19.091 10.0001 19.091C12.4106 19.091 14.7245 18.1326 16.4276 16.4284C18.1322 14.7241 19.091 12.4102 19.091 10.0001C19.091 7.59 18.1322 5.27608 16.4276 3.57182C14.7245 1.86756 12.4106 0.90918 10.0001 0.90918Z" fill="url(#paint0_linear_151_342)"/>
<path d="M5.02427 9.90412C7.67484 8.74957 9.44189 7.9884 10.3254 7.6206C12.851 6.57046 13.3751 6.38807 13.7175 6.38189C13.7927 6.38068 13.9604 6.39929 14.0697 6.48771C14.1606 6.56229 14.1862 6.66314 14.199 6.73395C14.2104 6.80469 14.226 6.96591 14.2132 7.09176C14.0768 8.52926 13.4845 12.0176 13.1834 13.6277C13.0569 14.3089 12.8055 14.5374 12.5626 14.5597C12.0342 14.6082 11.6336 14.2108 11.1223 13.8757C10.3226 13.3511 9.87086 13.0247 9.09387 12.5129C8.19615 11.9214 8.77853 11.5963 9.2899 11.0651C9.42342 10.926 11.7501 8.81023 11.7942 8.61832C11.7998 8.59432 11.8055 8.50483 11.7515 8.45767C11.699 8.41037 11.6209 8.42656 11.564 8.43935C11.4831 8.45753 10.2061 9.30242 7.72882 10.9739C7.3666 11.223 7.03848 11.3445 6.74302 11.3381C6.41916 11.3311 5.79416 11.1545 5.32967 11.0037C4.76149 10.8186 4.30836 10.7207 4.34814 10.4064C4.36802 10.2428 4.59387 10.0753 5.02427 9.90412Z" fill="white"/>
<defs>
<linearGradient id="paint0_linear_151_342" x1="910" y1="0.90918" x2="910" y2="1819.09" gradientUnits="userSpaceOnUse">
<stop stop-color="#2AABEE"/>
<stop offset="1" stop-color="#229ED9"/>
</linearGradient>
</defs>
</svg>
